<?xml version="1.0" encoding="UTF-8"?>
<!-- Created with Inkscape (http://www.inkscape.org/) -->
<svg width="48" height="48" version="1.1" viewBox="0 0 48 48" xmlns="http://www.w3.org/2000/svg">
	<path d="m24 0a24 24 0 0 0 -24 24 24 24 0 0 0 24 24 24 24 0 0 0 24 -24 24 24 0 0 0 -24 -24zm11.924 7.9531a4.0004 4.0004 0 0 1 3.4043 6.2656l-6.5215 9.7812 6.5215 9.7812a4.0004 4.0004 0 1 1 -6.6562 4.4375l-9.4785-14.219 9.4785-14.219a4.0004 4.0004 0 0 1 3.252 -1.8281zm-24.098 0.10742a4.0004 4.0004 0 0 1 0.40039 0.0019531 4.0004 4.0004 0 0 1 0.39844 0.042969 4.0004 4.0004 0 0 1 0.77148 0.20312 4.0004 4.0004 0 0 1 0.7168 0.35156 4.0004 4.0004 0 0 1 1.8867 3.3398v24a4.0004 4.0004 0 0 1 -0.10352 0.8457 4.0004 4.0004 0 0 1 -0.10938 0.38477 4.0004 4.0004 0 0 1 -0.14648 0.37109 4.0004 4.0004 0 0 1 -0.18359 0.35547 4.0004 4.0004 0 0 1 -0.75 0.93164 4.0004 4.0004 0 0 1 -0.30664 0.25586 4.0004 4.0004 0 0 1 -0.33203 0.22266 4.0004 4.0004 0 0 1 -1.1035 0.45898 4.0004 4.0004 0 0 1 -1.1914 0.11133 4.0004 4.0004 0 0 1 -0.78906 -0.125 4.0004 4.0004 0 0 1 -0.74805 -0.2793 4.0004 4.0004 0 0 1 -0.34961 -0.19336 4.0004 4.0004 0 0 1 -0.91016 -0.77539 4.0004 4.0004 0 0 1 -0.63867 -1.0117 4.0004 4.0004 0 0 1 -0.3125 -1.1543 4.0004 4.0004 0 0 1 -0.025391 -0.39844v-24a4.0004 4.0004 0 0 1 0.03125 -0.45117 4.0004 4.0004 0 0 1 0.072266 -0.39453 4.0004 4.0004 0 0 1 0.10938 -0.38477 4.0004 4.0004 0 0 1 0.14648 -0.37109 4.0004 4.0004 0 0 1 0.40234 -0.69141 4.0004 4.0004 0 0 1 1.1699 -1.0742 4.0004 4.0004 0 0 1 0.7207 -0.34375 4.0004 4.0004 0 0 1 0.77539 -0.19141 4.0004 4.0004 0 0 1 0.39844 -0.037109z" fill="#252525"/>
</svg>
